<mxfile host="app.diagrams.net" modified="2024-04-22T13:15:23.096Z" agent="Mozilla/5.0 (Windows NT 10.0; Win64; x64) AppleWebKit/537.36 (KHTML, like Gecko) Chrome/123.0.0.0 Safari/537.36" version="24.2.7" etag="31Yy3y50r1WEc-o-0dpU" type="github">
  <diagram name="PÃ¡gina-1" id="KKvSypYANiCZy57_Xb6n">
    <mxGraphModel>
      <root>
        <mxCell id="0" />
        <mxCell id="1" parent="0" />
      </root>
    </mxGraphModel>
  </diagram>
</mxfile>
